<mxfile host="app.diagrams.net" agent="Mozilla/5.0 (X11; Linux x86_64) AppleWebKit/537.36 (KHTML, like Gecko) Chrome/131.0.0.0 Safari/537.36" version="26.0.6">
  <diagram name="Page-1" id="UNiNOvZEF88G2ACv8Y1w">
    <mxGraphModel dx="1698" dy="669" grid="1" gridSize="10" guides="1" tooltips="1" connect="1" arrows="1" fold="1" page="1" pageScale="1" pageWidth="850" pageHeight="1100" math="0" shadow="0">
      <root>
        <mxCell id="0" />
        <mxCell id="1" parent="0" />
        <mxCell id="xKMs7ECHSLpIAbeHWf_T-17" value="" style="rounded=0;whiteSpace=wrap;html=1;fillColor=#f5f5f5;fontColor=#333333;strokeColor=#666666;" vertex="1" parent="1">
          <mxGeometry x="90" y="40" width="570" height="270" as="geometry" />
        </mxCell>
        <mxCell id="xKMs7ECHSLpIAbeHWf_T-14" value="" style="rounded=0;whiteSpace=wrap;html=1;fillColor=#fff2cc;strokeColor=#d6b656;" vertex="1" parent="1">
          <mxGeometry x="-290" y="40" width="360" height="320" as="geometry" />
        </mxCell>
        <mxCell id="xKMs7ECHSLpIAbeHWf_T-22" value="Get Latest Pricing&lt;div&gt;REST Call&lt;/div&gt;" style="edgeStyle=orthogonalEdgeStyle;rounded=0;orthogonalLoop=1;jettySize=auto;html=1;" edge="1" parent="1" source="xKMs7ECHSLpIAbeHWf_T-1" target="xKMs7ECHSLpIAbeHWf_T-2">
          <mxGeometry relative="1" as="geometry" />
        </mxCell>
        <mxCell id="xKMs7ECHSLpIAbeHWf_T-1" value="Sports Event Widget&lt;div&gt;NBA Finals Event&lt;/div&gt;" style="shape=umlActor;verticalLabelPosition=bottom;verticalAlign=top;html=1;outlineConnect=0;" vertex="1" parent="1">
          <mxGeometry x="760" y="100" width="30" height="60" as="geometry" />
        </mxCell>
        <mxCell id="xKMs7ECHSLpIAbeHWf_T-2" value="OrderBook&lt;div&gt;Server&lt;/div&gt;&lt;div&gt;&lt;b&gt;&amp;lt;in memory&lt;/b&gt;&lt;/div&gt;&lt;div&gt;&lt;b&gt;top of book&amp;gt;&lt;/b&gt;&lt;/div&gt;" style="rounded=1;whiteSpace=wrap;html=1;" vertex="1" parent="1">
          <mxGeometry x="440" y="120" width="130" height="60" as="geometry" />
        </mxCell>
        <mxCell id="xKMs7ECHSLpIAbeHWf_T-4" value="OrderBook&lt;div&gt;Server&lt;/div&gt;&lt;div&gt;&lt;b&gt;&amp;lt;in memory top of book&lt;/b&gt;&lt;b style=&quot;background-color: transparent; color: light-dark(rgb(0, 0, 0), rgb(255, 255, 255));&quot;&gt;&amp;gt;&lt;/b&gt;&lt;/div&gt;" style="rounded=1;whiteSpace=wrap;html=1;" vertex="1" parent="1">
          <mxGeometry x="440" y="210" width="130" height="60" as="geometry" />
        </mxCell>
        <mxCell id="xKMs7ECHSLpIAbeHWf_T-19" style="edgeStyle=orthogonalEdgeStyle;rounded=0;orthogonalLoop=1;jettySize=auto;html=1;" edge="1" parent="1" source="xKMs7ECHSLpIAbeHWf_T-6" target="xKMs7ECHSLpIAbeHWf_T-18">
          <mxGeometry relative="1" as="geometry" />
        </mxCell>
        <mxCell id="xKMs7ECHSLpIAbeHWf_T-6" value="MarketDataServer" style="rounded=1;whiteSpace=wrap;html=1;" vertex="1" parent="1">
          <mxGeometry x="180" y="160" width="100" height="60" as="geometry" />
        </mxCell>
        <mxCell id="xKMs7ECHSLpIAbeHWf_T-9" value="Websocket&lt;div&gt;Update&lt;/div&gt;&lt;div&gt;All Markets&lt;/div&gt;" style="edgeStyle=orthogonalEdgeStyle;rounded=0;orthogonalLoop=1;jettySize=auto;html=1;strokeWidth=5;strokeColor=#00CC00;" edge="1" parent="1" source="xKMs7ECHSLpIAbeHWf_T-8" target="xKMs7ECHSLpIAbeHWf_T-6">
          <mxGeometry relative="1" as="geometry" />
        </mxCell>
        <mxCell id="xKMs7ECHSLpIAbeHWf_T-8" value="Kalshi Exchange" style="rounded=1;whiteSpace=wrap;html=1;fontStyle=2;fillColor=#f5f5f5;fontColor=#333333;strokeColor=#666666;" vertex="1" parent="1">
          <mxGeometry x="-80" y="160" width="120" height="60" as="geometry" />
        </mxCell>
        <mxCell id="xKMs7ECHSLpIAbeHWf_T-11" style="edgeStyle=orthogonalEdgeStyle;rounded=0;orthogonalLoop=1;jettySize=auto;html=1;entryX=0;entryY=0.5;entryDx=0;entryDy=0;" edge="1" parent="1" source="xKMs7ECHSLpIAbeHWf_T-10" target="xKMs7ECHSLpIAbeHWf_T-8">
          <mxGeometry relative="1" as="geometry" />
        </mxCell>
        <mxCell id="xKMs7ECHSLpIAbeHWf_T-10" value="External&lt;div&gt;Market Makers&lt;/div&gt;" style="shape=umlActor;verticalLabelPosition=bottom;verticalAlign=top;html=1;outlineConnect=0;" vertex="1" parent="1">
          <mxGeometry x="-200" y="100" width="30" height="60" as="geometry" />
        </mxCell>
        <mxCell id="xKMs7ECHSLpIAbeHWf_T-13" style="edgeStyle=orthogonalEdgeStyle;rounded=0;orthogonalLoop=1;jettySize=auto;html=1;entryX=0;entryY=0.5;entryDx=0;entryDy=0;" edge="1" parent="1" source="xKMs7ECHSLpIAbeHWf_T-12" target="xKMs7ECHSLpIAbeHWf_T-8">
          <mxGeometry relative="1" as="geometry" />
        </mxCell>
        <mxCell id="xKMs7ECHSLpIAbeHWf_T-12" value="FBG User" style="shape=umlActor;verticalLabelPosition=bottom;verticalAlign=top;html=1;outlineConnect=0;" vertex="1" parent="1">
          <mxGeometry x="-210" y="240" width="30" height="60" as="geometry" />
        </mxCell>
        <mxCell id="xKMs7ECHSLpIAbeHWf_T-15" value="External&amp;nbsp;&lt;div&gt;Kalshi&lt;/div&gt;" style="text;html=1;align=center;verticalAlign=middle;resizable=0;points=[];autosize=1;strokeColor=none;fillColor=none;fontStyle=1" vertex="1" parent="1">
          <mxGeometry x="-290" y="40" width="70" height="40" as="geometry" />
        </mxCell>
        <mxCell id="xKMs7ECHSLpIAbeHWf_T-16" value="Note:&amp;nbsp; We are only&lt;div&gt;allowed ONE Websocket Connection&lt;/div&gt;&lt;div&gt;(Ask Kalshi if we can have two)&lt;/div&gt;" style="text;html=1;align=center;verticalAlign=middle;resizable=0;points=[];autosize=1;strokeColor=none;fillColor=none;" vertex="1" parent="1">
          <mxGeometry x="70" y="80" width="220" height="60" as="geometry" />
        </mxCell>
        <mxCell id="xKMs7ECHSLpIAbeHWf_T-20" style="edgeStyle=orthogonalEdgeStyle;rounded=0;orthogonalLoop=1;jettySize=auto;html=1;entryX=0;entryY=0.5;entryDx=0;entryDy=0;" edge="1" parent="1" source="xKMs7ECHSLpIAbeHWf_T-18" target="xKMs7ECHSLpIAbeHWf_T-4">
          <mxGeometry relative="1" as="geometry" />
        </mxCell>
        <mxCell id="xKMs7ECHSLpIAbeHWf_T-21" style="edgeStyle=orthogonalEdgeStyle;rounded=0;orthogonalLoop=1;jettySize=auto;html=1;entryX=0;entryY=0.5;entryDx=0;entryDy=0;" edge="1" parent="1" source="xKMs7ECHSLpIAbeHWf_T-18" target="xKMs7ECHSLpIAbeHWf_T-2">
          <mxGeometry relative="1" as="geometry" />
        </mxCell>
        <mxCell id="xKMs7ECHSLpIAbeHWf_T-18" value="" style="sketch=0;points=[[0,0,0],[0.25,0,0],[0.5,0,0],[0.75,0,0],[1,0,0],[0,1,0],[0.25,1,0],[0.5,1,0],[0.75,1,0],[1,1,0],[0,0.25,0],[0,0.5,0],[0,0.75,0],[1,0.25,0],[1,0.5,0],[1,0.75,0]];outlineConnect=0;fontColor=#232F3E;fillColor=#8C4FFF;strokeColor=#ffffff;dashed=0;verticalLabelPosition=bottom;verticalAlign=top;align=center;html=1;fontSize=12;fontStyle=0;aspect=fixed;shape=mxgraph.aws4.resourceIcon;resIcon=mxgraph.aws4.managed_streaming_for_kafka;" vertex="1" parent="1">
          <mxGeometry x="310" y="151" width="78" height="78" as="geometry" />
        </mxCell>
        <mxCell id="xKMs7ECHSLpIAbeHWf_T-24" style="edgeStyle=orthogonalEdgeStyle;rounded=0;orthogonalLoop=1;jettySize=auto;html=1;" edge="1" parent="1" source="xKMs7ECHSLpIAbeHWf_T-23" target="xKMs7ECHSLpIAbeHWf_T-4">
          <mxGeometry relative="1" as="geometry" />
        </mxCell>
        <mxCell id="xKMs7ECHSLpIAbeHWf_T-25" value="Bulk Get Latest Pricing&lt;div&gt;Event Markets&lt;/div&gt;" style="edgeLabel;html=1;align=center;verticalAlign=middle;resizable=0;points=[];" vertex="1" connectable="0" parent="xKMs7ECHSLpIAbeHWf_T-24">
          <mxGeometry x="0.2047" y="3" relative="1" as="geometry">
            <mxPoint x="16" y="7" as="offset" />
          </mxGeometry>
        </mxCell>
        <mxCell id="xKMs7ECHSLpIAbeHWf_T-26" value="Text" style="edgeLabel;html=1;align=center;verticalAlign=middle;resizable=0;points=[];" vertex="1" connectable="0" parent="xKMs7ECHSLpIAbeHWf_T-24">
          <mxGeometry x="0.4423" y="9" relative="1" as="geometry">
            <mxPoint as="offset" />
          </mxGeometry>
        </mxCell>
        <mxCell id="xKMs7ECHSLpIAbeHWf_T-23" value="PAGE with many&lt;div&gt;markets&lt;/div&gt;" style="shape=umlActor;verticalLabelPosition=bottom;verticalAlign=top;html=1;outlineConnect=0;" vertex="1" parent="1">
          <mxGeometry x="760" y="220" width="30" height="60" as="geometry" />
        </mxCell>
      </root>
    </mxGraphModel>
  </diagram>
</mxfile>
